
<svg width="20px" height="20px" viewBox="0 0 20 20" version="1.1" xmlns="http://www.w3.org/2000/svg" xmlns:xlink="http://www.w3.org/1999/xlink">
    <!-- Generator: Sketch 50.2 (55047) - http://www.bohemiancoding.com/sketch -->
    <desc>Created with Sketch.</desc>
    <defs></defs>
    <g id="Landing-&amp;-Game" stroke="none" stroke-width="1" fill="none" fill-rule="evenodd">
        <g id="SG-Landing" transform="translate(-1011.000000, -86.000000)" fill="#96A1AC" fill-rule="nonzero">
            <g id="av" transform="translate(1011.000000, 86.000000)">
                <path d="M10,-2.72374715e-14 C4.47721354,-2.72374715e-14 0,4.47721354 0,10 C0,15.5227865 4.47721354,20 10,20 C10.3012695,20 10.6013997,19.9864909 10.9000651,19.9596354 C11.1777344,19.9347331 11.4529622,19.8966471 11.7260742,19.8489583 L11.8310547,19.8304037 C16.9086914,18.8828125 20.429362,14.2241211 19.9544271,9.08056642 C19.4794922,3.93701171 15.1653646,0.00162760417 10,-2.72374715e-14 Z M9.19661458,19.2980143 L9.17301433,19.2980143 C8.913737,19.2750651 8.65641275,19.2403971 8.40136717,19.1959635 C8.38671875,19.1933594 8.37207033,19.1917317 8.35774742,19.1889648 C8.10839842,19.1443685 7.86165367,19.08903 7.61735025,19.0244141 L7.55826825,19.0092773 C7.319987,18.9446615 7.08430992,18.8696289 6.85205079,18.7862956 C6.82796225,18.7776692 6.80371092,18.7700195 6.77962242,18.7610677 C6.55192058,18.6774088 6.32828775,18.5836588 6.10807292,18.4822591 C6.08072917,18.4700521 6.05338542,18.4583333 6.02604167,18.4453125 C5.81005858,18.3453776 5.59830729,18.2327474 5.390625,18.1142578 C5.36132812,18.0976562 5.33170575,18.0810547 5.30240883,18.0646159 C5.09798175,17.9453125 4.89827475,17.8173828 4.70231121,17.6822917 C4.67268879,17.6616211 4.64274088,17.6416016 4.61328125,17.620931 C4.42073567,17.484375 4.23307292,17.3393555 4.05029296,17.1876627 L4,17.1437175 L4,14.3333333 C4.00244142,12.3092448 5.64257812,10.6691081 7.66666667,10.6666667 L12.3333333,10.6666667 C14.3574219,10.6691081 15.9975586,12.3092448 16,14.3333333 L16,17.144043 L15.9557292,17.1809896 C15.7693685,17.3365885 15.578125,17.483724 15.3816732,17.6227213 C15.3556315,17.6409505 15.3292643,17.6583659 15.3033854,17.6762695 C15.1051433,17.8139648 14.9020183,17.9435221 14.6940104,18.0652669 C14.6679688,18.0804037 14.641276,18.0947266 14.6153971,18.1097005 C14.4046224,18.229655 14.1902669,18.3429362 13.9716797,18.444987 C13.9466146,18.4567057 13.9213867,18.4676107 13.8959961,18.4783529 C13.6739909,18.5807292 13.448405,18.6749675 13.2190755,18.7592773 C13.1962891,18.7677409 13.1733398,18.7750651 13.1523438,18.7830404 C12.9189453,18.8666992 12.6822917,18.9423828 12.4427083,19.0073242 L12.3852539,19.0216471 C12.140625,19.086263 11.8937175,19.1419271 11.644043,19.1866862 C11.62972,19.1892904 11.6153971,19.1910807 11.6010742,19.1933594 C11.3457031,19.2379557 11.0880534,19.2726237 10.8286133,19.2957357 L10.805013,19.2957357 C10.5384115,19.3186849 10.2716471,19.3310547 10.0016276,19.3310547 C9.73160808,19.3310547 9.46272788,19.3209635 9.19661458,19.2980143 Z M16.6666667,16.5260417 L16.6666667,14.3333333 C16.6638997,11.9412435 14.7254232,10.0027669 12.3333333,10 L7.66666667,10 C5.27457683,10.0027669 3.33610025,11.9412435 3.33333333,14.3333333 L3.33333333,16.5257162 C-0.256835917,12.8614909 -0.216796875,6.98665367 3.42285158,3.37158204 C7.0625,-0.243326833 12.9375,-0.243326833 16.5771484,3.37158204 C20.2167969,6.98665367 20.2568359,12.8614909 16.6666667,16.5257162 L16.6666667,16.5260417 Z" id="Shape"></path>
                <path d="M10,2.66666667 C8.15901692,2.66666667 6.66666667,4.15901692 6.66666667,6 C6.66666667,7.84098308 8.15901692,9.33333333 10,9.33333333 C11.8409831,9.33333333 13.3333333,7.84098308 13.3333333,6 C13.3313802,4.15983075 11.8401692,2.66861979 10,2.66666667 Z M10,8.66666667 C8.527181,8.66666667 7.33333333,7.472819 7.33333333,6 C7.33333333,4.527181 8.527181,3.33333333 10,3.33333333 C11.472819,3.33333333 12.6666667,4.527181 12.6666667,6 C12.6650391,7.47200521 11.4720052,8.66503908 10,8.66666667 Z" id="Shape"></path>
            </g>
        </g>
    </g>
</svg>
