<svg xmlns="http://www.w3.org/2000/svg" width="24" height="24" viewBox="0 0 24 24">
    <g fill="#065FCA" fill-rule="evenodd">
        <path d="M12.99 24H2.01A2.012 2.012 0 0 1 0 21.991V6.51C0 5.401.9 4.5 2.01 4.5h7.74a.75.75 0 1 1 0 1.5H2.01a.51.51 0 0 0-.51.508v15.483c0 .281.229.509.51.509h10.98c.281 0 .51-.228.51-.509V20.25a.75.75 0 0 1 1.5 0v1.741A2.01 2.01 0 0 1 12.99 24"/>
        <path d="M10.877 1.5a.378.378 0 0 0-.377.377v17.247c0 .207.17.376.377.376h11.246c.209 0 .377-.17.377-.377V1.877a.377.377 0 0 0-.377-.376H10.877zM22.123 21H10.877A1.878 1.878 0 0 1 9 19.123V1.877C9 .843 9.841 0 10.877 0h11.246C23.159 0 24 .842 24 1.877v17.247A1.878 1.878 0 0 1 22.123 21z"/>
        <path d="M14.247 10.604l2.012 2.694 2.01-2.694-2.01-2.694-2.012 2.694zm2.012 4.698a.745.745 0 0 1-.6-.3l-2.95-3.95a.752.752 0 0 1 0-.897l2.95-3.948a.747.747 0 0 1 1.2 0l2.945 3.948c.2.266.2.632 0 .897L16.86 15a.742.742 0 0 1-.6.302z"/>
    </g>
</svg>
