<svg xmlns="http://www.w3.org/2000/svg" width="24" height="24" viewBox="0 0 24 24">
    <g fill="#6A2DB3" fill-rule="evenodd">
        <path d="M13.025 2.09c-.214 0-.43.025-.642.077L1.79 4.712a.478.478 0 0 0-.35.476V18.66c0 .235.146.44.356.497l10.524 2.891a2.736 2.736 0 0 0 1.705-.08l7.257-2.737a.512.512 0 0 0 .319-.485V5.31a.488.488 0 0 0-.311-.467l-7.344-2.593a2.768 2.768 0 0 0-.92-.159m.024 21.624c-.362 0-.726-.049-1.082-.146L1.443 20.675C.593 20.443.001 19.612.001 18.66V5.19c0-.974.607-1.797 1.478-2.008L12.072.635a4.088 4.088 0 0 1 2.318.123l7.343 2.593c.782.276 1.308 1.061 1.308 1.958v13.436c0 .886-.519 1.678-1.288 1.966l-7.257 2.738a4.075 4.075 0 0 1-1.446.265"/>
        <path d="M18 10.55c-.397 0-.72.351-.72.784 0 .433.323.784.72.784.397 0 .72-.351.72-.784 0-.433-.323-.784-.72-.784M6.48 10.55c-.397 0-.72.351-.72.784 0 .433.323.784.72.784.397 0 .72-.351.72-.784 0-.433-.323-.784-.72-.784M3.6 7.415c-.397 0-.72.35-.72.784 0 .432.323.783.72.783.397 0 .72-.35.72-.783 0-.433-.323-.784-.72-.784M3.6 15.254c-.397 0-.72.35-.72.784 0 .432.323.784.72.784.397 0 .72-.352.72-.784 0-.433-.323-.784-.72-.784M9.36 5.847c-.397 0-.72.351-.72.784 0 .432.323.784.72.784.397 0 .72-.352.72-.784 0-.433-.323-.784-.72-.784M9.36 15.254c-.397 0-.72.35-.72.784 0 .432.323.784.72.784.397 0 .72-.352.72-.784 0-.433-.323-.784-.72-.784M13.68 23.093c-.397 0-.72-.351-.72-.784V1.927c0-.432.323-.784.72-.784.397 0 .72.352.72.784V22.31c0 .433-.323.784-.72.784"/>
    </g>
</svg>
