<svg xmlns="http://www.w3.org/2000/svg" width="24" height="24" viewBox="0 0 24 24">
    <g fill="none" fill-rule="evenodd">
        <path fill="#26A52B" fill-rule="nonzero" d="M12 22.8c5.965 0 10.8-4.835 10.8-10.8 0-5.965-4.835-10.8-10.8-10.8C6.035 1.2 1.2 6.035 1.2 12c0 5.965 4.835 10.8 10.8 10.8zm0 1.2C5.373 24 0 18.627 0 12S5.373 0 12 0s12 5.373 12 12-5.373 12-12 12z"/>
        <path stroke="#26A52B" stroke-width="1.4" d="M12.585 10.7l3.077-4.403-3.744-3.491-5.229 1.88.174 4.928zM10.591 19.622l2.816 2.933 4.918-2.1.803-4.345-4.882-.6z"/>
        <path stroke="#26A52B" d="M13.428 1.515l2.503.32.124.032a10.962 10.962 0 0 1 4.374 3.23l.154.19-.448 1.952 1.543 4.353 1.204.305-.012.4c-.173 5.878-5.004 10.58-10.895 10.58-2.86 0-5.55-1.113-7.571-3.068l-.395-.381 2.167-1.862-1.715-4.42-2.154-.742-.19 6.057-.85-4.442a10.842 10.842 0 0 1 .61-6.152l.075-.125L4.513 4.57l.673-1.079.118-.13a10.845 10.845 0 0 1 6.671-2.289c.048 0 .048 0 .089.002h.023l.066.002.167.031 1.108.408zM2.178 15.72l.043.076a10.476 10.476 0 0 0 9.754 6.655c5.785 0 10.475-4.69 10.475-10.475C22.45 6.19 17.76 1.5 11.975 1.5 6.19 1.5 1.5 6.19 1.5 11.975c0 1.271.228 2.512.667 3.68l.01.064z"/>
    </g>
</svg>
