<svg xmlns="http://www.w3.org/2000/svg" width="24" height="24" viewBox="0 0 24 24">
    <g fill="#D27E1B" fill-rule="evenodd">
        <path d="M15.466 1.5a.468.468 0 0 0-.467.466v11.068c0 .256.21.466.467.466h6.568c.257 0 .465-.21.465-.466V1.966a.467.467 0 0 0-.465-.466h-6.568zM22.034 15h-6.568a1.969 1.969 0 0 1-1.967-1.966V1.966C13.5.882 14.381 0 15.466 0h6.568C23.12 0 24 .882 24 1.966v11.068C24 14.117 23.12 15 22.034 15zM1.982 10.5a.483.483 0 0 0-.482.482v11.037c0 .264.216.481.482.481h6.535A.484.484 0 0 0 9 22.018V10.981a.484.484 0 0 0-.483-.481H1.982zM8.517 24H1.982A1.984 1.984 0 0 1 0 22.018V10.981C0 9.89.888 9 1.982 9h6.535c1.094 0 1.983.89 1.983 1.982v11.037C10.5 23.11 9.611 24 8.517 24zM18.75 22.5a.75.75 0 0 1-.75-.75v-4.5a.75.75 0 0 1 1.5 0v4.5a.75.75 0 0 1-.75.75"/>
        <path d="M18.855 23.599a.75.75 0 0 1-.537-.227l-2.662-2.736a.75.75 0 0 1 1.075-1.045l2.124 2.182 2.124-2.182a.75.75 0 0 1 1.076 1.046l-2.663 2.735a.75.75 0 0 1-.537.227M5.46 7.099a.75.75 0 0 1-.75-.75v-4.5a.75.75 0 0 1 1.5 0v4.5a.75.75 0 0 1-.75.75"/>
        <path d="M8.017 4.233a.751.751 0 0 1-.537-.226L5.356 1.826l-2.124 2.18a.747.747 0 0 1-1.06.014.748.748 0 0 1-.015-1.06L4.817.227a.774.774 0 0 1 1.076 0L8.554 2.96a.75.75 0 0 1-.537 1.273"/>
    </g>
</svg>
