<svg xmlns="http://www.w3.org/2000/svg" width="24" height="24" viewBox="0 0 24 24">
    <g fill="#C6084A" fill-rule="evenodd">
        <path d="M6.75 24A6.758 6.758 0 0 1 0 17.25a6.758 6.758 0 0 1 6.75-6.75 6.765 6.765 0 0 1 5.907 3.477c.2.364.069.819-.293 1.021a.755.755 0 0 1-1.02-.29A5.258 5.258 0 0 0 6.75 12a5.256 5.256 0 0 0-5.25 5.25 5.256 5.256 0 0 0 5.25 5.25 5.26 5.26 0 0 0 4.596-2.709.754.754 0 0 1 1.02-.291.754.754 0 0 1 .293 1.021A6.765 6.765 0 0 1 6.75 24"/>
        <path d="M17.25 12A5.256 5.256 0 0 0 12 17.25a5.256 5.256 0 0 0 5.25 5.25 5.256 5.256 0 0 0 5.25-5.25A5.256 5.256 0 0 0 17.25 12m0 12a6.758 6.758 0 0 1-6.75-6.75 6.758 6.758 0 0 1 6.75-6.75A6.758 6.758 0 0 1 24 17.25 6.758 6.758 0 0 1 17.25 24M3.842 12.75a.743.743 0 0 1-.364-.095A6.76 6.76 0 0 1 0 6.75 6.757 6.757 0 0 1 6.75 0a6.757 6.757 0 0 1 5.91 3.487.75.75 0 1 1-1.313.726A5.257 5.257 0 0 0 6.751 1.5 5.256 5.256 0 0 0 1.5 6.75a5.26 5.26 0 0 0 2.706 4.595.75.75 0 0 1-.365 1.405M9.65 12.754a.75.75 0 0 1-.363-1.405 5.252 5.252 0 0 0 2.058-2.059.75.75 0 0 1 1.313.727 6.768 6.768 0 0 1-2.645 2.644.756.756 0 0 1-.363.093"/>
        <path d="M20.153 12.752a.75.75 0 0 1-.363-1.405A5.26 5.26 0 0 0 22.5 6.75a5.256 5.256 0 0 0-5.25-5.25A5.257 5.257 0 0 0 12 6.75a5.262 5.262 0 0 0 2.707 4.594c.361.2.492.657.29 1.019a.754.754 0 0 1-1.02.292A6.76 6.76 0 0 1 10.5 6.751 6.757 6.757 0 0 1 17.25 0 6.756 6.756 0 0 1 24 6.75a6.757 6.757 0 0 1-3.483 5.908.756.756 0 0 1-.363.093M19.5 15.75a.75.75 0 0 0-.75-.75h-3a.75.75 0 0 0 0 1.5h1.898l-1.267 3.339a.75.75 0 0 0 1.403.533l1.626-4.283a.74.74 0 0 0 .09-.339"/>
    </g>
</svg>
