<?xml version="1.0" encoding="UTF-8"?>
<svg width="20px" height="18px" viewBox="0 0 20 18" version="1.1" xmlns="http://www.w3.org/2000/svg" xmlns:xlink="http://www.w3.org/1999/xlink">
    <!-- Generator: Sketch 50.2 (55047) - http://www.bohemiancoding.com/sketch -->
    <title>chat</title>
    <desc>Created with Sketch.</desc>
    <defs></defs>
    <g id="Landing-&amp;-Game" stroke="none" stroke-width="1" fill="none" fill-rule="evenodd">
        <g id="user-menu" transform="translate(-1033.000000, -60.000000)" fill="#98A4AE" fill-rule="nonzero">
            <g id="Group-14" transform="translate(0.000000, 39.000000)">
                <g id="chat" transform="translate(1033.000000, 21.000000)">
                    <path d="M19.7430849,11.4177215 L19.7430849,2.31392405 C19.7430849,1.05316456 18.7279262,0.0253164557 17.4827317,0.0253164557 L2.26035318,0.0253164557 C1.01515862,0.0253164557 0,1.05316456 0,2.31392405 L0,11.4177215 C0,12.678481 1.01515862,13.7063291 2.26035318,13.7063291 L2.90545398,13.7063291 L2.90545398,16.4506329 C2.90545398,16.956962 3.31051727,17.3670886 3.81559619,17.3670886 C4.07563682,17.3670886 4.32567589,17.2506329 4.50070323,17.0481013 L7.3561494,13.7012658 L17.4877325,13.7012658 C18.7279262,13.7063291 19.7430849,12.678481 19.7430849,11.4177215 Z M7.07110486,12.4658228 C6.89107673,12.4658228 6.72605095,12.5417722 6.60603219,12.678481 L4.12564463,15.5797468 L4.12564463,13.0835443 C4.12564463,12.7392405 3.85060166,12.4607595 3.51054852,12.4607595 L2.26035318,12.4607595 C1.6902641,12.4607595 1.22519144,11.9898734 1.22519144,11.4126582 L1.22519144,2.31392405 C1.22519144,1.73670886 1.6902641,1.26582278 2.26035318,1.26582278 L17.4827317,1.26582278 C18.0528208,1.26582278 18.5178934,1.73670886 18.5178934,2.31392405 L18.5178934,11.4177215 C18.5178934,11.9949367 18.0528208,12.4658228 17.4827317,12.4658228 L7.07110486,12.4658228 Z" id="Shape"></path>
                    <ellipse id="Oval" cx="9.87154243" cy="7.0835443" rx="1" ry="1"></ellipse>
                    <ellipse id="Oval" cx="12.3169245" cy="7.0835443" rx="1" ry="1"></ellipse>
                    <ellipse id="Oval" cx="7.42616034" cy="7.0835443" rx="1" ry="1"></ellipse>
                </g>
            </g>
        </g>
    </g>
</svg>