<svg xmlns="http://www.w3.org/2000/svg" width="24" height="25" viewBox="0 0 24 25">
    <g fill="none" fill-rule="evenodd">
        <g transform="translate(12.613 12.613)">
            <circle cx="5.032" cy="6.581" r="4.282" stroke="#0056af" stroke-width="1.5"/>
            <path stroke="#0056af" d="M7.636 2.416l1.959 2.102.218-.218a1.435 1.435 0 1 0-2.03-2.03l-.147.146z"/>
            <path fill="#0056af" fill-rule="nonzero" d="M2.953 8.752a.235.235 0 0 1-.167-.069 3.096 3.096 0 0 1-.912-2.204c0-.833.324-1.616.912-2.204.348-.348.76-.602 1.222-.755a.235.235 0 1 1 .148.447c-.392.13-.74.346-1.037.642a2.628 2.628 0 0 0-.774 1.87c0 .708.275 1.372.774 1.871a.236.236 0 0 1-.166.402z"/>
        </g>
        <path stroke="#0056af" stroke-width="1.5" d="M17.781 1.325l1.223 2.477c.085.173.25.292.44.32l2.733.397c.479.07.67.658.324.995l-1.979 1.928a.584.584 0 0 0-.167.517l.467 2.723a.584.584 0 0 1-.847.615l-2.445-1.285a.584.584 0 0 0-.544 0l-2.445 1.285a.584.584 0 0 1-.846-.615l.466-2.723a.584.584 0 0 0-.167-.517l-1.978-1.928a.584.584 0 0 1 .323-.995l2.734-.397a.583.583 0 0 0 .44-.32l1.222-2.477a.583.583 0 0 1 1.046 0zM6.943 8.293l1.222 2.477c.085.172.25.292.44.32l2.733.397c.48.07.67.658.324.995L9.684 14.41a.584.584 0 0 0-.168.517l.467 2.722a.584.584 0 0 1-.847.616L6.69 16.98a.584.584 0 0 0-.543 0l-2.445 1.285a.584.584 0 0 1-.847-.616l.467-2.722a.584.584 0 0 0-.168-.517l-1.978-1.928a.584.584 0 0 1 .323-.995l2.734-.398a.583.583 0 0 0 .44-.319l1.222-2.477a.583.583 0 0 1 1.047 0z"/>
    </g>
</svg>
