<svg xmlns="http://www.w3.org/2000/svg" width="23" height="24" viewBox="0 0 23 24">
    <g fill="#09FBF3" fill-rule="evenodd">
        <path fill-rule="nonzero" d="M.719 23.478A.728.728 0 0 1 0 22.742c0-.407.322-.737.719-.737H22.28c.397 0 .719.33.719.737a.728.728 0 0 1-.719.736H.72zM16.788 6.515a.744.744 0 0 1 .369-.97.712.712 0 0 1 .947.377l4.841 11.28a.744.744 0 0 1-.368.97.712.712 0 0 1-.947-.377l-4.842-11.28zM1.394 17.797a.712.712 0 0 1-.948.375.744.744 0 0 1-.367-.971L5.046 5.697a.712.712 0 0 1 .948-.376c.363.165.527.6.367.972L1.394 17.797z"/>
        <path d="M14.375 12.43a.728.728 0 0 0-.719-.737.728.728 0 0 0-.719.737c0 .406.322.736.72.736.396 0 .718-.33.718-.736M14.375 16.85a.728.728 0 0 0-.719-.737.728.728 0 0 0-.719.736c0 .407.322.737.72.737.396 0 .718-.33.718-.737M10.063 16.85a.728.728 0 0 0-.72-.737.728.728 0 0 0-.718.736c0 .407.322.737.719.737.397 0 .719-.33.719-.737M10.063 12.43a.728.728 0 0 0-.72-.737.728.728 0 0 0-.718.737c0 .406.322.736.719.736.397 0 .719-.33.719-.736M5.75 16.85a.728.728 0 0 0-.719-.737.728.728 0 0 0-.718.736c0 .407.322.737.718.737.397 0 .719-.33.719-.737M18.688 16.85a.728.728 0 0 0-.72-.737.728.728 0 0 0-.718.736c0 .407.322.737.719.737.396 0 .718-.33.718-.737"/>
        <path fill-rule="nonzero" d="M14.608 3.161c0 1.746-1.381 3.161-3.085 3.161-1.703 0-3.085-1.415-3.085-3.16C8.438 1.414 9.82 0 11.523 0c1.704 0 3.085 1.415 3.085 3.161zm-1.437 0c0-.932-.738-1.688-1.648-1.688-.91 0-1.647.756-1.647 1.688 0 .932.738 1.688 1.647 1.688.91 0 1.648-.756 1.648-1.688z"/>
    </g>
</svg>
