<?xml version="1.0" encoding="UTF-8"?>
<svg width="17px" height="20px" viewBox="0 0 17 20" version="1.1" xmlns="http://www.w3.org/2000/svg" xmlns:xlink="http://www.w3.org/1999/xlink">
    <!-- Generator: Sketch 50.2 (55047) - http://www.bohemiancoding.com/sketch -->
    <title>user</title>
    <desc>Created with Sketch.</desc>
    <defs></defs>
    <g id="Landing-&amp;-Game" stroke="none" stroke-width="1" fill="none" fill-rule="evenodd">
        <g id="user-menu" transform="translate(-994.000000, -58.000000)" fill="#98A4AE" fill-rule="nonzero">
            <g id="Group-14" transform="translate(0.000000, 39.000000)">
                <g id="user" transform="translate(994.000000, 19.000000)">
                    <path d="M8.42554745,10.7743271 C8.44622871,10.7743271 8.46690998,10.7743271 8.49172749,10.7743271 C8.5,10.7743271 8.50827251,10.7743271 8.51654501,10.7743271 C8.52895377,10.7743271 8.54549878,10.7743271 8.55790754,10.7743271 C9.76982968,10.7536232 10.7501217,10.3271222 11.4739659,9.51138716 C13.0664234,7.71428571 12.8017032,4.63354037 12.7727494,4.33954451 C12.6693431,2.13250518 11.6270073,1.07660455 10.7666667,0.583850932 C10.1255474,0.215320911 9.37688564,0.016563147 8.54136253,0 L8.51240876,0 C8.50827251,0 8.5,0 8.49586375,0 L8.47104623,0 C8.01192214,0 7.11021898,0.0745341615 6.24574209,0.567287785 C5.37712895,1.06004141 4.31824818,2.11594203 4.21484185,4.33954451 C4.18588808,4.63354037 3.92116788,7.71428571 5.5136253,9.51138716 C6.23333333,10.3271222 7.2136253,10.7536232 8.42554745,10.7743271 Z M5.31922141,4.44306418 C5.31922141,4.43064182 5.32335766,4.41821946 5.32335766,4.40993789 C5.45985401,1.44099379 7.56520681,1.12215321 8.46690998,1.12215321 L8.48345499,1.12215321 C8.49172749,1.12215321 8.50413625,1.12215321 8.51654501,1.12215321 C9.63333333,1.14699793 11.5318735,1.60248447 11.6600973,4.40993789 C11.6600973,4.42236025 11.6600973,4.43478261 11.6642336,4.44306418 C11.6683698,4.47204969 11.9579075,7.28778468 10.6425791,8.77018634 C10.1214112,9.35817805 9.42652068,9.64803313 8.51240876,9.6563147 C8.50413625,9.6563147 8.5,9.6563147 8.49172749,9.6563147 C8.48345499,9.6563147 8.47931873,9.6563147 8.47104623,9.6563147 C7.56107056,9.64803313 6.8620438,9.35817805 6.34501217,8.77018634 C5.03381995,7.29606625 5.31508516,4.4679089 5.31922141,4.44306418 Z" id="Shape"></path>
                    <path d="M16.9917275,15.884058 C16.9917275,15.8799172 16.9917275,15.8757764 16.9917275,15.8716356 C16.9917275,15.8385093 16.9875912,15.805383 16.9875912,15.7681159 C16.9627737,14.9482402 16.9090024,13.0310559 15.1138686,12.4182195 C15.1014599,12.4140787 15.0849148,12.4099379 15.0725061,12.4057971 C13.207056,11.9296066 11.6559611,10.8530021 11.6394161,10.8405797 C11.3871046,10.6625259 11.0396594,10.7246377 10.8618005,10.9772257 C10.6839416,11.2298137 10.7459854,11.5776398 10.9982968,11.7556936 C11.0686131,11.805383 12.7148418,12.952381 14.7746959,13.4824017 C15.7384428,13.826087 15.8459854,14.8571429 15.8749392,15.8012422 C15.8749392,15.8385093 15.8749392,15.8716356 15.8790754,15.9047619 C15.8832117,16.2774327 15.8583942,16.8530021 15.7922141,17.184265 C15.1221411,17.5652174 12.4956204,18.8819876 8.5,18.8819876 C4.52092457,18.8819876 1.87785888,17.5610766 1.20364964,17.1801242 C1.13746959,16.8488613 1.10851582,16.2732919 1.11678832,15.9006211 C1.11678832,15.8674948 1.12092457,15.8343685 1.12092457,15.7971014 C1.14987835,14.8530021 1.25742092,13.8219462 2.22116788,13.4782609 C4.2810219,12.9482402 5.92725061,11.7971014 5.99756691,11.7515528 C6.24987835,11.573499 6.31192214,11.2256729 6.13406326,10.9730849 C5.95620438,10.7204969 5.60875912,10.6583851 5.35644769,10.8364389 C5.33990268,10.8488613 3.79708029,11.9254658 1.92335766,12.4016563 C1.90681265,12.4057971 1.89440389,12.4099379 1.88199513,12.4140787 C0.0868613139,13.0310559 0.0330900243,14.9482402 0.00827250608,15.7639752 C0.00827250608,15.8012422 0.00827250608,15.8343685 0.00413625304,15.8674948 C0.00413625304,15.8716356 0.00413625304,15.8757764 0.00413625304,15.8799172 C-3.4230431e-15,16.0952381 -0.00413625304,17.2008282 0.215085158,17.7556936 C0.256447689,17.863354 0.330900243,17.9544513 0.430170316,18.0165631 C0.554257908,18.0993789 3.52822384,19.9958592 8.50413625,19.9958592 C13.4800487,19.9958592 16.4540146,18.0952381 16.5781022,18.0165631 C16.673236,17.9544513 16.7518248,17.863354 16.7931873,17.7556936 C17,17.2049689 16.9958637,16.0993789 16.9917275,15.884058 Z" id="Shape"></path>
                </g>
            </g>
        </g>
    </g>
</svg>