<svg xmlns="http://www.w3.org/2000/svg" width="24" height="24" viewBox="0 0 24 24">
    <g fill="#018033" fill-rule="evenodd">
        <path d="M12 1.5C6.21 1.5 1.5 6.21 1.5 12c0 5.788 4.71 10.5 10.5 10.5S22.5 17.788 22.5 12c0-5.79-4.71-10.5-10.5-10.5M12 24C5.383 24 0 18.616 0 12 0 5.383 5.383 0 12 0c6.616 0 12 5.383 12 12 0 6.616-5.384 12-12 12"/>
        <path d="M12.07 6A6.076 6.076 0 0 0 6 12.069a6.077 6.077 0 0 0 6.07 6.07 6.077 6.077 0 0 0 6.069-6.07A6.076 6.076 0 0 0 12.069 6m0 13.64c-4.174 0-7.568-3.396-7.568-7.571C4.5 7.896 7.895 4.5 12.07 4.5c4.174 0 7.569 3.396 7.569 7.569 0 4.175-3.395 7.57-7.57 7.57"/>
        <path d="M15.186 11.278h-2.408V8.871a.75.75 0 0 0-1.5 0v2.407H8.871a.75.75 0 0 0 0 1.5h2.407v2.408a.75.75 0 0 0 1.5 0v-2.408h2.408a.75.75 0 0 0 0-1.5M6.176 7.942a.753.753 0 0 1-.531-.22L3.704 5.78a.75.75 0 0 1 1.06-1.06l1.943 1.94a.752.752 0 0 1-.531 1.282M17.824 7.942a.752.752 0 0 1-.531-1.281l1.943-1.941a.75.75 0 0 1 1.06 1.06l-1.94 1.943a.753.753 0 0 1-.532.219M19.766 19.94a.753.753 0 0 1-.531-.218l-1.941-1.941a.75.75 0 0 1 1.06-1.06l1.943 1.939a.752.752 0 0 1-.531 1.28M4.234 19.94a.752.752 0 0 1-.531-1.281l1.943-1.939a.75.75 0 0 1 1.06 1.06l-1.94 1.942a.753.753 0 0 1-.532.219"/>
    </g>
</svg>
