<?xml version="1.0" encoding="UTF-8" standalone="no"?>
<svg width="18px" height="20px" viewBox="0 0 18 20" version="1.1" xmlns="http://www.w3.org/2000/svg" xmlns:xlink="http://www.w3.org/1999/xlink">
    <!-- Generator: sketchtool 49 (51002) - http://www.bohemiancoding.com/sketch -->
    <title>670575CB-9A64-40F0-9998-184733F8329F</title>
    <desc>Created with sketchtool.</desc>
    <defs>
        <linearGradient x1="9.96556713%" y1="0%" x2="97.7427662%" y2="0%" id="linearGradient-1">
            <stop stop-color="#57B314" offset="0%"></stop>
            <stop stop-color="#1E9F04" offset="100%"></stop>
        </linearGradient>
    </defs>
    <g id="Game-menu" stroke="none" stroke-width="1" fill="none" fill-rule="evenodd">
        <g id="Game-Popups" transform="translate(-973.000000, -753.000000)" fill="url(#linearGradient-1)" fill-rule="nonzero">
            <g id="history" transform="translate(80.000000, 620.000000)">
                <g id="Group-3" transform="translate(20.000000, 124.000000)">
                    <g id="icon-provabyfair" transform="translate(873.000000, 9.000000)">
                        <path d="M16.7405458,3.44682261 C13.994152,2.69430799 11.2316179,1.5225731 8.75157895,0.0583235867 C8.61984405,-0.019454191 8.45637427,-0.019454191 8.32467836,0.0583235867 C5.77309942,1.56463938 3.15984405,2.67298246 0.335477583,3.44682261 C0.153021442,3.49676413 0.0265497076,3.66261209 0.0265497076,3.85181287 L0.0265497076,8.14210526 C0.0265497076,12.5601559 2.06471735,15.4846004 3.7745809,17.159883 C5.61536062,18.9635867 7.75961014,19.9610526 8.53812865,19.9610526 C9.3165692,19.9610526 11.4608187,18.9635867 13.3015984,17.159883 C15.011423,15.4846394 17.0494737,12.5601949 17.0494737,8.14210526 L17.0494737,3.85177388 C17.0494737,3.66261209 16.9230019,3.49676413 16.7405458,3.44682261 Z M16.2097076,8.14206628 C16.2097076,12.268499 14.308694,14.9973489 12.7138402,16.56 C10.9036647,18.3336842 8.96826511,19.1212086 8.53812865,19.1212086 C8.1079922,19.1212086 6.17247563,18.3336842 4.36226121,16.56 C2.76744639,14.9973099 0.866354776,12.268499 0.866354776,8.14206628 L0.866354776,4.17052632 C3.56725146,3.40366472 6.0825731,2.33345029 8.53820663,0.906432749 C10.9325146,2.29559454 13.5733333,3.41902534 16.2097076,4.17037037 L16.2097076,8.14206628 Z" id="Shape"></path>
                        <path d="M4.8162963,4.12354776 C4.73130604,3.90775828 4.48752437,3.80175439 4.27169591,3.88678363 C3.52159844,4.18233918 2.75169591,4.45438596 1.98339181,4.69539961 C1.80830409,4.75037037 1.68916179,4.91255361 1.68916179,5.09602339 L1.68916179,6.71750487 C1.68916179,6.94939571 1.87719298,7.13738791 2.10904483,7.13738791 C2.34089669,7.13738791 2.52892788,6.94939571 2.52892788,6.71750487 L2.52892788,5.40288499 C3.21816764,5.17988304 3.90666667,4.93321637 4.57953216,4.66807018 C4.79532164,4.58311891 4.90132554,4.33933723 4.8162963,4.12354776 Z" id="Shape"></path>
                        <path d="M5.61391813,4.20319688 C5.67025341,4.20319688 5.72744639,4.19185185 5.78230019,4.16791423 L5.79001949,4.1645614 C6.00245614,4.07146199 6.09812865,3.82417154 6.00502924,3.61181287 C5.91185185,3.39937622 5.66315789,3.30327485 5.45095517,3.3962963 L5.44417154,3.39922027 C5.23161793,3.49204678 5.13563353,3.7391423 5.22846004,3.95161793 C5.29734893,4.10935673 5.45192982,4.20319688 5.61391813,4.20319688 Z" id="Shape"></path>
                        <path d="M13.5408187,13.5392982 C13.3467836,13.4124756 13.0865887,13.4670175 12.9596101,13.6611306 C12.6136062,14.1907212 12.2076803,14.6978558 11.7529435,15.1683041 C11.3789864,15.5551267 10.9737622,15.9156725 10.548538,16.2398441 C10.3641715,16.3804288 10.328694,16.6438986 10.4692398,16.8283431 C10.5519298,16.9366862 10.6769591,16.9936842 10.8034308,16.9936842 C10.8922417,16.9936842 10.9817154,16.965653 11.0577388,16.9076413 C11.5164133,16.5578947 11.9534503,16.1690838 12.3566472,15.7520078 C12.8483041,15.2434698 13.2876803,14.6945419 13.6626511,14.1204678 C13.7895517,13.9263158 13.7349318,13.6661209 13.5408187,13.5392982 Z" id="Shape"></path>
                        <path d="M9.57341131,16.8983626 L9.54931774,16.9125536 C9.34865497,17.0287719 9.28007797,17.285614 9.39625731,17.4862768 C9.47411306,17.6207797 9.61504873,17.6958674 9.76003899,17.6958674 C9.83138402,17.6958674 9.90382066,17.6776608 9.96998051,17.6392593 L9.99777778,17.622924 C10.1978947,17.505731 10.2651072,17.248538 10.1479142,17.0484211 C10.0306433,16.8483821 9.77341131,16.7812865 9.57341131,16.8983626 Z" id="Shape"></path>
                        <path d="M5.67598441,9.12354776 C5.41816764,8.86569201 5.07528265,8.72378168 4.71060429,8.72378168 C4.34592593,8.72378168 4.00300195,8.86573099 3.74506823,9.12354776 C3.21278752,9.65594542 3.21278752,10.5222222 3.74506823,11.0545809 L6.22444444,13.5338791 C6.48230019,13.7916569 6.82518519,13.9336062 7.18990253,13.9336062 C7.55461988,13.9336062 7.89750487,13.7916569 8.15539961,13.5338012 L13.3312671,8.35789474 C13.8635088,7.82538012 13.8635088,6.95922027 13.3311891,6.42701754 C13.0733333,6.16916179 12.7304483,6.02725146 12.365692,6.02725146 C12.0009747,6.02725146 11.6580897,6.16920078 11.4001949,6.42701754 L7.18986355,10.6373489 L5.67598441,9.12354776 Z M11.9940351,7.0208577 C12.0932554,6.92163743 12.2253021,6.86701754 12.365731,6.86701754 C12.5062378,6.86701754 12.6381676,6.92163743 12.7374659,7.0208577 C12.9423392,7.22573099 12.9423392,7.55922027 12.7373879,7.76417154 L7.56159844,12.94 C7.46237817,13.0392203 7.33033138,13.0938402 7.18990253,13.0938402 C7.04947368,13.0938402 6.9174269,13.0392203 6.81816764,12.94 L4.3388694,10.4607797 C4.13391813,10.2558285 4.13391813,9.92233918 4.33879142,9.71746589 C4.43805068,9.61824561 4.57009747,9.56354776 4.7105653,9.56354776 C4.85103314,9.56354776 4.98300195,9.61816764 5.08222222,9.71738791 L6.89294347,11.5281481 C6.97173489,11.6068616 7.07847953,11.6511111 7.18986355,11.6511111 C7.30124756,11.6511111 7.4079922,11.6069006 7.48670565,11.5281481 L11.9940351,7.0208577 Z" id="Shape"></path>
                    </g>
                </g>
            </g>
        </g>
    </g>
</svg>