<svg width="38px" height="38px" viewBox="0 0 38 38" version="1.1" xmlns="http://www.w3.org/2000/svg" xmlns:xlink="http://www.w3.org/1999/xlink">
  <!-- Generator: Sketch 48.2 (47327) - http://www.bohemiancoding.com/sketch -->
  <desc>Created with Sketch.</desc>
  <defs>
    <filter x="-2.8%" y="-2.8%" width="111.1%" height="111.1%" filterUnits="objectBoundingBox" id="filter-1">
      <feOffset dx="2" dy="2" in="SourceAlpha" result="shadowOffsetOuter1"></feOffset>
      <feColorMatrix values="0 0 0 0 0   0 0 0 0 0   0 0 0 0 0  0 0 0 0.5 0" type="matrix" in="shadowOffsetOuter1" result="shadowMatrixOuter1"></feColorMatrix>
      <feMerge>
        <feMergeNode in="shadowMatrixOuter1"></feMergeNode>
        <feMergeNode in="SourceGraphic"></feMergeNode>
      </feMerge>
    </filter>
  </defs>
  <g id="Page-1" stroke="none" stroke-width="1" fill="none" fill-rule="evenodd">
    <g id="Goal-desktop-02-Copy" transform="translate(-172.000000, -343.000000)">
      <g id="ball" filter="url(#filter-1)" transform="translate(172.000000, 343.000000)">
        <path d="M8.83868354,19.8566582 C9.48637975,19.4548861 9.53286076,19.0901772 9.53286076,19.0901772 C9.53286076,19.0901772 9.44536709,19.3836456 8.83868354,19.8566582 Z" id="Shape"></path>
        <path d="M9.53286076,19.0901772 C9.78394937,18.1601013 10.5476962,15.5401519 10.1115949,13.1374177 C10.416,15.7111899 9.78410127,18.1601013 9.53286076,19.0901772 Z" id="Shape"></path>
        <path d="M11.3339241,33.5447089 C11.3339241,33.1488608 11.1306835,32.9966582 11.1306835,32.9966582 L6.22146835,28.6623797 C5.92207595,28.3011646 5.58683544,28.4317975 5.58683544,28.4317975 L5.55873418,28.4381772 L3.72410127,28.8530127 L3.67534177,28.8641013 C3.67534177,28.8641013 8.32572152,33.4503797 11.3339241,34.6354937 L11.3339241,34.537519 L11.3339241,33.5447089 Z" id="Shape" fill="#2B1F15" fill-rule="nonzero"></path>
        <path d="M34.5698734,24.7758987 C34.5616709,24.7707342 34.5528608,24.7655696 34.5417722,24.759038 C34.5341772,24.7526582 34.5250633,24.7449114 34.5171646,24.7382278 C33.9394937,24.2516962 32.6396962,23.1381266 32.1066835,22.5341772 C31.8862785,22.263038 31.8363038,22.0193924 31.8241519,21.9173165 L31.8246076,21.9171646 C31.6751392,20.5546329 32.0258734,16.1387848 32.2882025,15.0162532 C32.3684051,14.7540759 32.5332152,14.5324557 32.6767595,14.3737215 L32.6773671,14.3741772 C33.279038,13.7330127 34.4740253,12.8362025 34.969519,12.4731646 C34.9748354,12.4693671 34.9643544,12.476962 34.969519,12.4731646 C33.604557,8.28440506 30.7543291,4.75974684 27.0232405,2.5558481 L27.0236962,2.55508861 C27.0236962,2.55508861 26.6793418,2.33331646 26.4148861,2.20541772 C26.4148861,2.20541772 26.4138228,2.20556962 26.4133671,2.20572152 C23.8868354,0.844556962 20.9990886,0.0706329114 17.9337722,0.0706329114 C16.1229873,0.0706329114 14.3752405,0.36243038 12.7265316,0.863696203 L12.7265316,1.464 L12.7268354,1.4641519 C12.7178734,1.656 12.6616709,1.92334177 12.3771646,2.0876962 L6.82389873,5.29488608 C6.82389873,5.29488608 6.564,5.43402532 6.21888608,5.32663291 L5.51118987,5.10440506 C2.44131646,8.064 0.410886076,12.0987342 0.0604556962,16.6011646 L0.0205063291,17.1874937 C0.00911392405,17.4581772 0,17.7297722 0,18.0037975 C0,22.0834937 1.37240506,25.8478481 3.67534177,28.8639494 L3.72410127,28.8528608 L5.55873418,28.4380253 L5.58683544,28.4316456 C5.58683544,28.4316456 5.92207595,28.3010127 6.22146835,28.6622278 L11.1306835,32.9965063 C11.1306835,32.9965063 11.3339241,33.1487089 11.3339241,33.544557 L11.3339241,34.5372152 L11.3339241,34.6351899 C13.3778734,35.446481 15.6034937,35.9363544 17.9336203,35.9363544 C20.3324051,35.9363544 22.6213671,35.4593924 24.7143797,34.6008608 L25.1460759,34.4146329 L25.2397975,34.3742278 L25.2399494,34.3740759 C29.4265823,32.4984304 32.8189367,29.1092658 34.5710886,24.8583797 C34.5786835,24.84 34.5893165,24.8138734 34.5969114,24.7953418 C34.5918987,24.7912405 34.5868861,24.7878987 34.5818734,24.7844051 C34.5786835,24.7819747 34.5741266,24.7787848 34.5698734,24.7758987 Z M9.53286076,19.0901772 C9.53286076,19.0901772 9.48622785,19.4548861 8.83868354,19.8566582 C8.01782278,20.5906329 5.82926582,21.6565063 4.7764557,21.9197468 C4.37574684,22.0505316 4.15883544,21.7699747 4.15883544,21.7699747 C3.43868354,21.0189873 1.60146835,18.2149367 1.31605063,16.9752911 C1.26425316,16.7257215 1.34293671,16.3910886 1.34293671,16.3910886 C1.70567089,15.3113924 3.45129114,12.0091139 4.56349367,10.9570633 C4.56349367,10.9570633 4.884,10.5742785 5.25706329,10.6269873 C6.29225316,10.7621772 8.68997468,11.7256709 9.53346835,12.3811139 C9.79534177,12.5615696 10.0190886,12.8096203 10.1115949,13.1374177 C10.5476962,15.5401519 9.78410127,18.1601013 9.53286076,19.0901772 Z M24.8427342,4.10126582 C25.0666329,4.17873418 25.3526582,4.33564557 25.5729114,4.67787342 C26.2471899,5.81635443 27.2193418,8.69362025 27.3882532,9.66273418 C27.4130127,9.86005063 27.3767089,10.1111392 26.9328608,10.5411646 C25.9174177,11.4332658 23.5494684,12.6428354 22.4015696,12.8884557 C22.1140253,12.9420759 21.850481,12.9036456 21.6672911,12.8576203 C20.2856203,12.4765063 17.2613165,10.6558481 16.236,9.41210127 C15.9498228,9.16921519 15.8027848,8.81817722 15.8027848,8.81817722 C15.5677975,7.97832911 16.6594937,5.16091139 17.1628861,3.93706329 C17.2822785,3.65346835 17.4422278,3.28860759 17.8127089,3.2515443 C19.2871899,3.05924051 23.5054177,3.72926582 24.8427342,4.10126582 Z M23.6313418,30.7892658 C23.6313418,30.7892658 23.3940759,30.9833924 23.0802532,30.9577215 C21.8772152,30.936 18.0106329,30.6068354 16.8514937,30.0642532 C16.5612152,29.9574684 16.4545823,29.6377215 16.4545823,29.6377215 C16.0597975,28.6497722 15.1857722,25.3163544 15.1834937,23.8241013 C15.1868354,23.2654177 15.4201519,23.0524557 15.4201519,23.0524557 C16.1763038,22.2054684 19.6909367,20.1335696 21.1411139,19.7436456 C21.1411139,19.7436456 21.7316962,19.611038 22.2195949,19.9569114 C23.4577215,20.7967595 25.8322025,23.0225316 26.5301772,23.9919494 C26.6156962,24.1248608 26.7232405,24.352557 26.7208101,24.5735696 C26.5626835,25.7781266 24.591038,29.9088608 23.6313418,30.7892658 Z" id="Shape" fill="#EAEBED" fill-rule="nonzero"></path>
        <path d="M10.1115949,13.1374177 C10.0190886,12.8096203 9.79534177,12.5615696 9.53346835,12.3811139 C8.68997468,11.7256709 6.29225316,10.7621772 5.25706329,10.6269873 C4.8838481,10.5742785 4.56349367,10.9570633 4.56349367,10.9570633 C3.45113924,12.0091139 1.70567089,15.3112405 1.34293671,16.3910886 C1.34293671,16.3910886 1.26425316,16.7257215 1.31605063,16.9752911 C1.60131646,18.2149367 3.43868354,21.0189873 4.15883544,21.7699747 C4.15883544,21.7699747 4.37574684,22.0505316 4.7764557,21.9197468 C5.82926582,21.6565063 8.01782278,20.5906329 8.83868354,19.8566582 C9.44536709,19.3836456 9.53286076,19.0901772 9.53286076,19.0901772 C9.78410127,18.1601013 10.416,15.7111899 10.1115949,13.1374177 Z" id="Shape" fill="#2B1F15" fill-rule="nonzero"></path>
        <path d="M35.0235949,12.5933165 C35.5880506,14.3343797 35.8944304,16.1916456 35.8944304,18.1207595 C35.8944304,20.5121013 35.4492152,22.7222278 34.5970633,24.7954937 C34.5920506,24.7913924 34.587038,24.7880506 34.5820253,24.784557 C34.5785316,24.7819747 34.5739747,24.7787848 34.5697215,24.7758987 C34.561519,24.7707342 34.5527089,24.7655696 34.5416203,24.759038 C34.5340253,24.7526582 34.5249114,24.7449114 34.5170127,24.7382278 C33.9393418,24.2516962 32.6395443,23.1381266 32.1065316,22.5341772 C31.8861266,22.263038 31.8361519,22.0193924 31.824,21.9173165 L31.8244557,21.9171646 C31.6749873,20.5546329 32.0257215,16.1387848 32.2880506,15.0162532 C32.3682532,14.7540759 32.5330633,14.5324557 32.6766076,14.3737215 L32.6772152,14.3741772 C33.2788861,13.7330127 34.4738734,12.8362025 34.9693671,12.4731646" id="Shape" fill="#2B1F15" fill-rule="nonzero"></path>
        <path d="M26.5300253,23.9921013 C25.8320506,23.0226835 23.4575696,20.7969114 22.219443,19.9570633 C21.7315443,19.6111899 21.140962,19.7437975 21.140962,19.7437975 C19.6906329,20.1337215 16.1761519,22.2056203 15.42,23.0526076 C15.42,23.0526076 15.1866835,23.2655696 15.1833418,23.8242532 C15.1854684,25.3165063 16.0596456,28.6499241 16.4544304,29.6378734 C16.4544304,29.6378734 16.5612152,29.9576203 16.8513418,30.0644051 C18.0106329,30.6068354 21.8770633,30.9361519 23.0801013,30.9578734 C23.3940759,30.9835443 23.6311899,30.7894177 23.6311899,30.7894177 C24.591038,29.9090127 26.5626835,25.7782785 26.7206582,24.5738734 C26.7230886,24.3527089 26.6153924,24.1250127 26.5300253,23.9921013 Z" id="Shape" fill="#2B1F15" fill-rule="nonzero"></path>
        <path d="M6.82374684,5.29473418 L12.3770127,2.0875443 C12.6613671,1.92334177 12.7175696,1.6558481 12.7266835,1.464 L12.7263797,1.4638481 L12.7263797,0.863544304 C9.98506329,1.69549367 7.52217722,3.16663291 5.51103797,5.10425316 L6.21873418,5.32648101 C6.564,5.43387342 6.82374684,5.29473418 6.82374684,5.29473418 Z" id="Shape" fill="#2B1F15" fill-rule="nonzero"></path>
        <path d="M17.1628861,3.93691139 C16.6594937,5.16075949 15.5677975,7.97817722 15.8027848,8.81802532 C15.8027848,8.81802532 15.9498228,9.16906329 16.236,9.41194937 C17.2613165,10.6555443 20.2857722,12.4763544 21.6672911,12.8574684 C21.8503291,12.9034937 22.1138734,12.9417722 22.4015696,12.8883038 C23.5494684,12.6426835 25.9174177,11.4332658 26.9328608,10.5410127 C27.3767089,10.1109873 27.4130127,9.85989873 27.3882532,9.66258228 C27.2193418,8.69346835 26.2471899,5.81620253 25.5729114,4.67772152 C25.3526582,4.33549367 25.0666329,4.17858228 24.8427342,4.10111392 C23.5054177,3.72911392 19.2871899,3.05908861 17.812557,3.25124051 C17.4422278,3.2884557 17.2822785,3.65331646 17.1628861,3.93691139 Z" id="Shape" fill="#2B1F15" fill-rule="nonzero"></path>
        <path d="M3.67534177,28.8639494 C3.67534177,28.8639494 8.32572152,33.4502278 11.3339241,34.6353418 C13.3778734,35.4466329 15.6034937,35.9366582 17.9336203,35.9366582 C20.3324051,35.9366582 22.6213671,35.4596962 24.7143797,34.6011646 L25.1460759,34.4149367 C25.1773671,34.4014177 25.2092658,34.3891139 25.240557,34.375443 L25.2401013,34.3743797 C29.4267342,32.4987342 32.8190886,29.1095696 34.5712405,24.8586835 C34.5788354,24.8403038 34.5894684,24.8141772 34.5970633,24.7956456 C35.4492152,22.7223797 35.8944304,20.5122532 35.8944304,18.1209114 C35.8944304,16.1917975 35.5880506,14.3345316 35.0235949,12.5934684 L34.9693671,12.4731646 C33.6044051,8.28440506 30.7541772,4.75974684 27.0230886,2.5558481 C34.1321013,10.6774177 33.8845063,20.8558481 28.5123038,27.2971139 C23.5921519,33.1962532 13.1705316,34.132557 3.67534177,28.8639494 Z" id="Shape" fill="#68696A" fill-rule="nonzero" opacity="0.46"></path>
      </g>
    </g>
  </g>
</svg>
