
<svg width="36px" height="42px" viewBox="0 0 36 42" version="1.1" xmlns="http://www.w3.org/2000/svg" xmlns:xlink="http://www.w3.org/1999/xlink">
  <!-- Generator: Sketch 48.2 (47327) - http://www.bohemiancoding.com/sketch -->
  <desc>Created with Sketch.</desc>
  <defs>
    <filter x="-28.2%" y="-14.7%" width="149.4%" height="141.2%" filterUnits="objectBoundingBox" id="filter-1">
      <feOffset dx="-1" dy="2" in="SourceAlpha" result="shadowOffsetOuter1"></feOffset>
      <feGaussianBlur stdDeviation="2" in="shadowOffsetOuter1" result="shadowBlurOuter1"></feGaussianBlur>
      <feColorMatrix values="0 0 0 0 0   0 0 0 0 0   0 0 0 0 0  0 0 0 0.5 0" type="matrix" in="shadowBlurOuter1" result="shadowMatrixOuter1"></feColorMatrix>
      <feMerge>
        <feMergeNode in="shadowMatrixOuter1"></feMergeNode>
        <feMergeNode in="SourceGraphic"></feMergeNode>
      </feMerge>
    </filter>
    <linearGradient x1="64.558978%" y1="30.2945834%" x2="22.6222936%" y2="100%" id="linearGradient-2">
      <stop stop-color="#201C1C" offset="0%"></stop>
      <stop stop-color="#000000" offset="100%"></stop>
    </linearGradient>
  </defs>
  <g id="Page-1" stroke="none" stroke-width="1" fill="none" fill-rule="evenodd">
    <g id="Goal-desktop-04" transform="translate(-256.000000, -263.000000)" fill="url(#linearGradient-2)" fill-rule="nonzero">
      <g id="icon-bomb-copy" filter="url(#filter-1)" transform="translate(261.000000, 265.000000)">
        <path d="M27.0785511,2.31782046 C25.8006764,2.31782046 24.7607307,3.35620459 24.7607307,4.63564092 C24.7607307,5.91351566 23.720785,6.95346138 22.4429102,6.95346138 C21.1650355,6.95346138 20.1250898,5.91351566 20.1250898,4.63564092 C20.1251608,2.08138205 18.0452693,0 15.4910814,0 C12.9353319,0 10.8554405,2.08138205 10.8554405,4.63564092 L10.8554405,7.72602088 L8.53762004,7.72602088 C8.11116493,7.72602088 7.76498956,8.07212526 7.76498956,8.49865136 L7.76498956,10.1844551 C3.12168267,12.0649603 0.0389686848,16.5955491 0.0389686848,21.6328727 C0.0389686848,28.4487724 5.58473069,33.9945344 12.4006305,33.9945344 C19.2165303,33.9945344 24.7607307,28.4487724 24.7607307,21.6328727 C24.7607307,16.5954781 21.6795783,12.0649603 17.0362714,10.1844551 L17.0362714,8.49865136 C17.0362714,8.07219624 16.690167,7.72602088 16.2636409,7.72602088 L12.4006305,7.72602088 L12.4006305,4.63564092 C12.4006305,2.92974948 13.785119,1.54526096 15.4910104,1.54526096 C17.1953403,1.54526096 18.5798998,2.92974948 18.5798998,4.63564092 C18.5798998,6.76493528 20.3136159,8.49865136 22.4429102,8.49865136 C24.5737662,8.49865136 26.3059207,6.76493528 26.3059207,4.63564092 C26.3059207,4.21067641 26.6535866,3.86301044 27.0785511,3.86301044 C27.5050063,3.86301044 27.8511816,3.51534447 27.8511816,3.09037996 C27.8511816,2.66392484 27.5050063,2.31782046 27.0785511,2.31782046 Z M7.98290188,15.2944635 C4.48764509,17.7312484 3.62699791,22.5554154 6.06378288,26.0521628 C6.30639666,26.4013904 6.21987056,26.8803716 5.86908142,27.1261086 C5.73464301,27.21881 5.58011691,27.2621086 5.42871399,27.2621086 C5.18453862,27.2621086 4.94504802,27.1493194 4.79520668,26.9345303 C3.37827975,24.9010605 2.83740292,22.4410647 3.27471816,20.0027182 C3.70891023,17.5643716 5.06869729,15.4428142 7.10067641,14.0273779 C7.45146555,13.7832025 7.93200835,13.8666764 8.17611273,14.2174656 C8.41865553,14.5681837 8.33212944,15.0502881 7.98290188,15.2944635 Z" id="Shape"></path>
      </g>
    </g>
  </g>
</svg>
